<svg width="268" height="415" viewBox="0 0 268 415" fill="none" xmlns="http://www.w3.org/2000/svg">
<path d="M241.44 269.284C241.44 236.424 241.53 203.564 241.44 170.714C241.3 128.714 212.22 94.654 170.73 87.714C120.3 79.284 73.33 117.814 72.97 168.834C72.47 237.674 72.8099 306.514 72.7299 375.354C72.7299 379.644 75.2999 381.724 78.5499 383.354C86.7999 387.504 95.7999 389.144 104.8 390.254C141.64 394.774 178.47 394.744 215.19 388.834C222.179 387.864 228.998 385.922 235.45 383.064C239.7 381.064 241.62 378.134 241.59 373.184C241.42 338.554 241.5 303.934 241.5 269.304L241.44 269.284ZM171.81 211.284C175.601 209.339 179.638 207.917 183.81 207.054C186.502 206.642 189.053 205.578 191.24 203.954C192.17 203.194 193.44 202.324 192.41 200.954C191.54 199.824 190.41 200.684 189.52 201.224C187.18 202.604 184.79 203.664 181.46 202.754C186.18 196.184 186.46 188.884 186.08 181.514C185.82 176.024 186.98 171.314 190.68 166.874C195.32 161.314 193.93 157.154 187.26 154.164C185.95 153.574 185.05 153.264 185.19 151.364C185.84 142.784 181.53 138.524 172.73 139.264C168.96 139.584 165.43 140.424 162.32 137.214C161.13 135.984 159.02 135.884 157.26 136.214C151.14 137.384 145.03 138.724 139.36 141.374C137.57 142.224 136.25 142.754 134.14 142.184C128.22 140.574 122.36 143.524 123.56 150.694C123.82 152.264 123.17 152.444 121.96 152.694C116.67 153.934 113.12 157.104 112.75 162.694C112.38 168.284 115.38 172.334 120.33 174.624C122.95 175.844 123.8 177.624 124.04 180.264C124.76 188.314 125.27 196.434 129.54 203.824C128.336 203.994 127.109 203.874 125.961 203.474C124.813 203.074 123.777 202.405 122.94 201.524C122.01 200.684 120.94 199.714 119.78 200.864C118.62 202.014 119.85 203.124 120.53 204.004C125.17 209.914 130.67 214.454 139.1 214.664C138.354 215.806 137.374 216.776 136.223 217.509C135.073 218.241 133.78 218.721 132.43 218.914C131.43 219.064 130.04 219.264 130.21 220.744C130.37 222.064 131.64 222.254 132.72 222.384C137.586 223.094 142.554 222.4 147.04 220.384C147.89 219.984 148.75 218.934 149.86 220.254C153.09 224.104 157.01 227.444 156.7 233.254C156.57 235.904 157.53 238.604 157.92 241.254C158.97 248.544 160.3 255.804 160.73 264.374C157.186 259.26 152.534 255.011 147.12 251.944C146.28 251.472 145.659 250.689 145.39 249.764C141.29 237.294 132.1 231.254 119.69 228.844C113.2 227.574 106.64 226.124 100.97 222.344C100.676 222.057 100.292 221.879 99.8835 221.839C99.4746 221.799 99.0643 221.9 98.72 222.124C97.8 222.814 97.9399 223.784 98.1599 224.724C99.4799 230.284 101.05 235.724 104.04 240.724C109.04 249.074 116.22 253.994 126.15 254.624C130.768 254.819 135.393 254.632 139.98 254.064C142.543 253.739 145.134 254.388 147.24 255.884C156.78 262.334 162.72 270.394 160.9 282.774C159.82 290.174 159.28 297.644 157.29 305.864C154.99 299.794 151.91 295.574 146.94 293.084C132.02 285.594 111.45 291.724 103.06 306.084C99.9784 311.674 97.6067 317.626 96 323.804C95.7 324.804 95.1899 325.804 96.1799 326.804C97.1699 327.804 98.1799 327.234 99.1799 326.754C101.562 325.757 104.108 325.208 106.69 325.134C110.078 324.979 113.452 324.602 116.79 324.004C130.2 321.004 136.63 311.224 140.27 299.004C141.7 294.164 142.35 293.904 146.72 296.714C153.35 300.994 156.65 310.234 154.72 319.494C152.88 328.554 151.33 337.684 151.81 346.954C152.01 350.904 150.81 351.874 146.98 352.014C123.06 352.884 98.9799 353.014 76.1999 362.294C76.1999 361.734 76.09 361.204 76.09 360.674C76.09 296.574 75.6799 232.474 76.2299 168.384C76.6699 118.054 125.49 80.544 174.66 91.814C212.44 100.484 238.05 132.394 238.09 171.084C238.163 233.824 238.18 296.567 238.14 359.314C238.14 360.314 238.51 361.404 237.62 362.374C229.69 358.224 221.17 356.594 212.62 355.374C194.859 352.939 176.947 351.779 159.02 351.904C156.02 351.904 155.02 351.004 155.02 347.974C155.018 341.865 155.442 335.764 156.29 329.714C157.96 318.164 161.35 306.924 162.66 295.304C163.66 286.304 169.99 281.124 176.26 275.834C177.53 274.764 178.83 275.314 180.13 275.514C185.222 276.444 190.45 276.315 195.49 275.134C207.57 272.044 220.19 253.634 218.87 241.134C218.69 239.444 217.74 238.884 216.38 239.714C210.81 243.114 204.49 243.144 198.38 244.014C186.16 245.764 179.54 251.644 176.57 263.374C176.051 265.618 175.677 267.892 175.45 270.184C175.32 271.284 175.3 272.334 174.39 273.184C171.19 276.044 168.01 278.924 164.3 282.264C165.015 272.243 164.542 262.173 162.89 252.264C162.214 248.348 162.806 244.319 164.58 240.764C165.26 239.344 167.78 237.644 165.93 236.244C163.73 234.564 163.17 237.884 161.73 238.764C161.55 238.874 161.25 238.764 160.92 238.764C160.47 232.274 156.72 225.654 162.45 219.534C163.61 218.284 163.89 217.354 165.7 218.464C170.05 221.114 174.86 220.464 179.59 219.914C180.59 219.794 181.9 219.524 182.03 218.174C182.18 216.664 180.77 216.554 179.81 216.314C176.641 215.596 173.817 213.809 171.81 211.254V211.284ZM157.74 377.324C135.96 377.124 115.09 376.384 94.47 372.514C89.504 371.742 84.683 370.225 80.1699 368.014C77.8799 366.814 77.8499 365.604 80.1699 364.384C82.9588 362.979 85.9066 361.914 88.9499 361.214C108.88 356.514 129.19 355.534 149.56 355.154C151.56 355.154 152.1 355.964 152.4 357.694C152.9 360.624 153.6 363.534 154.3 366.424C154.351 366.909 154.587 367.355 154.961 367.668C155.334 367.981 155.814 368.138 156.3 368.104C156.506 368.085 156.707 368.023 156.888 367.923C157.07 367.823 157.229 367.687 157.356 367.523C157.482 367.359 157.574 367.17 157.625 366.969C157.675 366.768 157.684 366.559 157.65 366.354C157.34 364.264 158.81 364.254 160.14 364.034C163.763 363.462 167.455 363.486 171.07 364.104C172.58 364.354 174.82 365.104 175.07 362.864C175.32 360.624 172.86 360.964 171.43 360.764C167.546 360.06 163.564 360.087 159.69 360.844C156.97 361.494 156.1 360.534 155.69 357.964C155.23 354.874 157.07 355.094 159.07 355.104C177.388 355.064 195.687 356.314 213.83 358.844C219.784 359.606 225.636 361.021 231.28 363.064C233.11 363.764 236.02 364.174 236.1 366.164C236.18 368.154 233.25 368.644 231.43 369.294C228.631 370.32 225.764 371.149 222.85 371.774C201.09 376.364 178.99 376.934 157.74 377.324ZM237.96 370.804C238.69 377.714 238.12 378.734 231.34 381.304C225.988 383.267 220.454 384.694 214.82 385.564C182.88 390.874 150.77 391.014 118.61 388.564C106.44 387.624 94.2799 386.144 82.7599 381.684C76.0299 379.064 75.2499 377.504 76.7599 370.134C81.0697 372.434 85.6967 374.082 90.4899 375.024C106.87 378.594 123.49 379.934 140.21 380.244C173.14 380.834 206.1 381.144 237.96 370.804ZM182.77 177.954C182.77 181.954 182.82 184.894 182.77 187.844C182.58 197.464 177.93 204.264 169.41 208.444C163.57 211.304 157.29 212.134 150.84 211.934C149.896 211.993 148.959 211.737 148.176 211.207C147.392 210.677 146.806 209.902 146.51 209.004C143.43 201.514 145.38 193.944 151.84 189.064C156.53 185.514 162.01 184.144 167.7 183.394C172.77 182.724 177.99 182.564 182.77 177.954ZM133.58 293.824C127.978 297.73 122.911 302.352 118.51 307.574C117.51 308.714 114.93 309.964 116.83 311.794C118.73 313.624 119.83 311.034 120.92 309.934C123.23 307.644 125.31 305.134 127.66 302.934C130.4 300.334 133.17 297.674 137.05 296.104C134.71 313.814 122.97 322.024 100.05 322.384C104.18 303.574 116.58 292.554 133.58 293.824ZM180.75 271.824C181.98 270.694 182.75 269.964 183.56 269.254C188.76 264.695 194.352 260.602 200.27 257.024C201.39 256.324 203.63 255.874 202.55 253.924C201.24 251.564 199.66 253.704 198.5 254.374C192.743 257.694 187.33 261.576 182.34 265.964C181.44 266.754 180.75 268.064 179.03 268.104C180.5 259.444 183.43 252.044 192.19 248.864C199.31 246.294 207.03 246.954 214.46 244.564C210.07 266.514 198.36 276.064 180.72 271.794L180.75 271.824ZM143.34 210.734C140.471 209.639 137.862 207.959 135.679 205.8C133.496 203.641 131.786 201.05 130.66 198.194C128.11 192.064 128.16 185.464 127.34 179.014C127.16 177.624 127.62 177.114 129.15 177.264C134.68 177.784 140.24 178.114 145.77 178.644C148.114 178.711 150.39 179.446 152.33 180.764C143.58 188.904 139.76 198.374 143.31 210.704L143.34 210.734ZM140.67 247.644C139.23 248.104 138.45 247.144 137.56 246.644C133.053 244.186 128.374 242.057 123.56 240.274C122.16 239.774 120.2 238.274 119.42 240.514C118.64 242.754 121.21 242.744 122.5 243.414C123.79 244.084 125.5 244.604 127 245.284C130.46 246.884 134.11 248.164 137.54 250.644C118.95 254.104 103.54 243.644 103.08 227.444C110.41 230.554 118.25 231.574 125.71 233.944C132.72 236.204 137.85 240.544 140.64 247.614L140.67 247.644ZM134.92 164.584C133.51 160.374 135.56 160.584 138.67 161.584C141.78 162.584 145.22 163.194 148.49 164.024C152.81 165.124 157.16 166.204 160.84 168.894C164.84 171.834 164.84 172.774 160.64 175.064C158.93 175.984 157.58 178.864 154.77 176.504C150.21 172.674 144.59 171.034 138.91 169.714C136.1 169.064 133.41 168.554 134.89 164.554L134.92 164.584ZM176.07 166.484C176.52 162.564 179.45 160.934 181.22 158.534C183.4 155.534 185.74 156.904 187.96 158.164C190.73 159.734 190.02 162.164 188.61 164.094C185.61 168.284 182.48 172.344 179.3 176.384C178.216 177.616 176.764 178.468 175.16 178.814C169.46 180.424 163.43 180.014 157.7 181.894C160.04 179.184 163.05 177.724 165.96 176.104C171.02 173.264 176.45 171.044 180.88 167.104C182.174 166.112 183.244 164.858 184.02 163.424C184.219 163.068 184.283 162.652 184.203 162.253C184.122 161.853 183.901 161.495 183.58 161.244C182.72 160.464 182.09 161.124 181.51 161.674C179.86 163.204 178.58 165.064 176.04 166.454L176.07 166.484ZM142.45 174.764C134.61 174.664 127.94 174.764 121.72 171.594C119.988 170.783 118.511 169.514 117.45 167.924C115.7 165.174 115.3 162.344 117.24 159.554C118.077 158.217 119.29 157.157 120.728 156.507C122.166 155.858 123.763 155.648 125.32 155.904C128.23 156.414 130.22 158.714 131 161.694C131.47 163.514 132.2 165.984 130.86 167.094C129.52 168.204 127.75 166.164 126.17 165.484C125.56 165.224 125.07 164.684 124.46 164.394C123.46 163.924 122.46 162.394 121.35 163.884C120.24 165.374 121.67 166.404 122.69 167.234C126.04 169.934 130.05 171.164 134.18 172.104C136.58 172.634 139.17 172.724 142.42 174.734L142.45 174.764ZM170.58 157.324C170.34 154.404 170.27 152.514 170.01 150.644C169.75 148.774 169.33 146.934 168.93 145.094C168.75 144.254 168.65 143.594 169.56 143.034C172.06 141.494 178.61 142.394 180.62 144.794C183.27 147.934 182.53 151.254 180.27 154.074C176.65 158.594 172.27 162.544 171.32 168.734C171.1 170.144 169.5 170.734 168.16 170.944C167.03 171.144 166.65 170.034 166.16 169.234C165.24 167.714 166.59 167.014 167.33 166.234C170.48 162.704 173.98 159.444 175.95 155.024C176.671 153.426 177.256 151.77 177.7 150.074C178.02 148.814 177.7 147.404 176.32 147.074C174.4 146.584 174.73 148.354 174.45 149.434C173.768 152.321 172.445 155.017 170.58 157.324ZM138.65 156.394C134.75 152.504 136.36 146.134 142.19 143.724C146.98 141.849 151.945 140.452 157.01 139.554C160.85 138.804 163.27 141.364 165.01 144.554C166.42 147.134 167.07 149.554 164.37 151.754C159.47 144.934 154.22 143.024 145.86 145.124C140.12 146.584 138.44 150.854 138.63 156.394H138.65ZM166.65 154.774C167.021 155.572 167.229 156.435 167.264 157.314C167.298 158.193 167.157 159.07 166.85 159.894C165.85 162.234 164.75 166.254 161.56 164.974C156.298 162.922 150.919 161.185 145.45 159.774C142.56 159.004 142.52 158.774 142.62 155.384C150.73 161.234 158.66 158.464 166.65 154.774ZM133.21 156.424C130.12 155.114 128.21 153.484 127.21 150.984C126.52 149.244 126.51 147.514 128.02 146.174C129.53 144.834 131.24 144.944 133.02 145.414C134.02 145.674 134.77 146.234 134.02 147.414C132.22 150.114 132.84 153.064 133.21 156.424ZM160.03 153.064C158.63 152.914 158.12 151.834 157.31 151.184C153.92 148.514 151.18 148.834 148.67 152.184C148.11 152.944 148.07 154.634 146.47 153.754C145.904 153.509 145.411 153.123 145.038 152.633C144.665 152.142 144.425 151.564 144.34 150.954C144.25 149.604 145.41 149.064 146.41 148.774C149.948 147.766 153.693 147.732 157.25 148.674C159.08 149.184 160.19 150.574 160.03 153.064ZM156.84 214.964C157.96 215.554 160.27 213.794 160.11 216.414C159.96 218.704 158.75 221.314 156.43 221.644C154.11 221.974 152.55 219.564 152.43 217.444C152.17 214.114 155.25 215.704 156.84 214.964ZM171.84 216.554C169.15 216.824 167.06 215.674 165.03 213.984C168.84 211.194 170.08 214.594 171.87 216.554H171.84ZM140.91 218.634C144.58 214.144 144.58 214.144 148.05 215.374C146.172 217.312 143.634 218.476 140.94 218.634H140.91Z" fill="black"/>
<path d="M111.07 59.4149C111.14 48.3049 105.7 41.8649 94.7102 40.3249C89.4902 39.5849 84.1602 39.6049 79.2602 37.2049C77.1202 36.2049 76.7502 37.8949 76.4402 39.4149C74.7002 47.9549 76.4902 55.2649 83.7402 60.7749C88.1102 64.0849 93.1802 66.0649 98.0002 68.5349C100.587 69.7279 103.023 71.2216 105.26 72.9849C107.57 74.9849 108.79 74.2449 109.41 71.4749C110.412 67.5294 110.968 63.4842 111.07 59.4149ZM106.58 65.0649C104.47 60.4624 101.649 56.2205 98.2202 52.4949C97.1502 51.4049 95.9602 49.3749 94.2802 50.9749C92.6002 52.5749 94.7602 53.5349 95.6602 54.5449C99.1956 58.4232 102.007 62.9042 103.96 67.7749C98.9602 65.2749 94.6902 63.2349 90.5302 61.0849C88.8492 60.2153 87.2406 59.2121 85.7202 58.0849C83.4656 56.5433 81.6671 54.4239 80.5129 51.9485C79.3588 49.4731 78.8916 46.7329 79.1602 44.0149C79.2602 42.6549 79.2502 41.0749 81.4002 41.7449C86.2302 43.2649 91.3202 43.1049 96.2302 44.1049C105.58 45.9649 110.58 55.6849 106.58 65.0649Z" fill="black"/>
<path d="M66.6602 93.3047C60.0202 93.5347 53.9202 93.9147 48.2202 96.4747C46.1893 97.3605 44.3551 98.6418 42.8246 100.244C41.2941 101.846 40.0979 103.737 39.3057 105.806C38.5136 107.875 38.1414 110.081 38.2108 112.296C38.2803 114.511 38.79 116.689 39.7102 118.705C40.1048 119.718 40.7673 120.605 41.6269 121.27C42.4864 121.936 43.5107 122.356 44.5902 122.485C50.4202 123.485 55.2702 121.615 59.5002 117.735C63.5002 114.105 66.1102 109.505 68.9602 105.045C70.6485 102.424 72.4918 99.9059 74.4802 97.5047C76.4002 95.1947 75.7302 94.1447 73.0502 93.8347C70.7602 93.5747 68.4502 93.4447 66.6602 93.3047ZM66.7602 96.8247L64.0702 98.7147C59.8416 101.647 55.8311 104.882 52.0702 108.395C51.2502 109.145 50.4502 109.945 51.4402 111.135C52.4302 112.325 53.3602 111.585 54.2102 110.905C55.0602 110.225 56.0502 109.315 57.0002 108.545C59.8602 106.225 62.4102 103.465 66.1002 102.205C63.2802 107.925 60.2402 113.415 54.8702 117.205C52.2655 118.974 49.1041 119.732 45.9802 119.335C45.236 119.299 44.5199 119.039 43.9257 118.589C43.3315 118.14 42.887 117.521 42.6502 116.815C40.2602 111.125 42.4002 103.815 47.6502 100.715C53.1502 97.3947 59.2602 96.7247 66.7602 96.8247Z" fill="black"/>
<path d="M35.52 49.9342C38.77 50.3042 40.3201 48.3042 40.8101 45.2842C41.4701 41.2842 40.07 37.8042 37.71 34.6542C34.63 30.5442 30.7801 27.0142 28.5901 22.2442C27.9701 20.8942 26.92 20.5742 25.64 21.6242C22.32 24.3342 19.89 35.3642 21.52 40.4342C23.27 45.8942 28.72 49.7642 34.91 49.9342H35.52ZM26.89 26.7642C29.42 29.8242 31.89 32.8242 34.38 35.8542C35.8171 37.4936 36.8604 39.4398 37.43 41.5442C38.49 45.9542 36.89 47.5442 32.57 46.2542C24.13 43.8442 21.71 35.7542 26.89 26.7642Z" fill="black"/>
<path d="M229.82 177.234C230.53 156.404 224.55 138.364 210.24 123.374C209.789 122.866 209.311 122.383 208.81 121.924C207.81 121.054 206.73 119.694 205.36 121.024C203.81 122.534 205.56 123.404 206.44 124.264C216.49 134.135 223.185 146.913 225.58 160.794C227 168.324 226.42 175.954 226.52 183.544C226.52 184.774 226.52 185.994 226.52 187.214C226.52 188.434 226.52 189.634 227.98 189.694C229.66 189.754 229.74 188.314 229.75 187.064C229.84 183.674 229.82 180.274 229.82 177.234Z" fill="black"/>
<path d="M185.98 108.354C185.896 108.829 185.981 109.318 186.22 109.736C186.46 110.155 186.838 110.476 187.29 110.644C188.317 111.28 189.386 111.845 190.49 112.334C191.94 112.944 193.76 115.054 194.91 112.744C196.06 110.434 193.24 110.154 191.91 109.294C190.66 108.521 189.316 107.913 187.91 107.484C187.727 107.402 187.529 107.359 187.329 107.358C187.129 107.358 186.931 107.401 186.748 107.483C186.566 107.565 186.403 107.686 186.27 107.836C186.138 107.986 186.039 108.163 185.98 108.354Z" fill="black"/>
</svg>
