<svg width="922" height="244" viewBox="0 0 922 244" fill="none" xmlns="http://www.w3.org/2000/svg">
<path d="M139.419 155.278C139.419 139.753 139.462 124.229 139.419 108.71C139.353 88.8676 125.579 72.7765 105.927 69.4978C82.0406 65.5152 59.7931 83.7181 59.6226 107.822C59.3858 140.344 59.5468 172.866 59.5089 205.389C59.5089 207.415 60.7262 208.398 62.2656 209.168C66.1733 211.129 70.4361 211.903 74.699 212.428C92.1484 214.563 109.593 214.549 126.986 211.757C130.296 211.299 133.526 210.381 136.582 209.031C138.595 208.086 139.504 206.702 139.49 204.363C139.41 188.003 139.447 171.647 139.447 155.287L139.419 155.278ZM106.439 127.876C108.234 126.958 110.146 126.286 112.122 125.878C113.398 125.683 114.606 125.181 115.642 124.414C116.082 124.054 116.684 123.643 116.196 122.996C115.784 122.462 115.248 122.869 114.827 123.124C113.719 123.776 112.587 124.276 111.009 123.847C113.245 120.743 113.378 117.294 113.198 113.812C113.074 111.218 113.624 108.993 115.376 106.896C117.574 104.269 116.916 102.304 113.756 100.891C113.136 100.612 112.71 100.466 112.776 99.5682C113.084 95.5147 111.042 93.5022 106.874 93.8518C105.089 94.003 103.417 94.3998 101.944 92.8833C101.38 92.3022 100.38 92.2549 99.5469 92.4108C96.6481 92.9636 93.7541 93.5967 91.0685 94.8486C90.2206 95.2502 89.5954 95.5006 88.596 95.2313C85.792 94.4707 83.0164 95.8643 83.5848 99.2517C83.7079 99.9934 83.4 100.078 82.8269 100.197C80.3213 100.782 78.6398 102.28 78.4646 104.921C78.2893 107.562 79.7103 109.475 82.0549 110.557C83.2958 111.133 83.6984 111.974 83.8121 113.222C84.1531 117.025 84.3947 120.861 86.4172 124.352C85.847 124.432 85.2658 124.376 84.7221 124.187C84.1783 123.998 83.6877 123.682 83.2911 123.265C82.8506 122.869 82.3438 122.41 81.7943 122.954C81.2449 123.497 81.8275 124.021 82.1496 124.437C84.3473 127.229 86.9524 129.374 90.9453 129.473C90.5921 130.013 90.1277 130.471 89.5829 130.817C89.0381 131.163 88.4255 131.39 87.7861 131.481C87.3124 131.552 86.654 131.646 86.7346 132.346C86.8103 132.969 87.4119 133.059 87.9234 133.12C90.2284 133.456 92.5815 133.128 94.7061 132.176C95.1087 131.987 95.5161 131.491 96.0418 132.114C97.5717 133.933 99.4285 135.511 99.2816 138.256C99.22 139.508 99.6748 140.783 99.8595 142.035C100.357 145.479 100.987 148.909 101.19 152.958C99.5119 150.542 97.3083 148.534 94.744 147.086C94.3463 146.863 94.052 146.493 93.9246 146.056C91.9826 140.164 87.6297 137.311 81.7517 136.172C78.6777 135.572 75.5705 134.887 72.8849 133.102C72.7455 132.966 72.564 132.882 72.3703 132.863C72.1766 132.844 71.9823 132.892 71.8192 132.998C71.3834 133.324 71.4497 133.782 71.5539 134.226C72.1792 136.853 72.9228 139.423 74.339 141.785C76.7073 145.73 80.1081 148.054 84.8115 148.352C86.9986 148.444 89.1897 148.355 91.3621 148.087C92.5759 147.934 93.8033 148.24 94.8009 148.947C99.3195 151.994 102.133 155.802 101.271 161.651C100.759 165.147 100.504 168.676 99.5611 172.559C98.4717 169.692 97.0128 167.698 94.6588 166.522C87.5919 162.983 77.8488 165.879 73.8749 172.663C72.4153 175.304 71.2919 178.116 70.5309 181.035C70.3888 181.507 70.1472 181.98 70.6161 182.452C71.085 182.924 71.5634 182.655 72.0371 182.428C73.1655 181.957 74.3714 181.698 75.5942 181.663C77.1989 181.59 78.797 181.412 80.3781 181.129C86.7298 179.712 89.7754 175.091 91.4995 169.318C92.1768 167.032 92.4847 166.909 94.5546 168.236C97.6949 170.258 99.2579 174.624 98.3438 178.998C97.4723 183.279 96.7381 187.592 96.9655 191.972C97.0602 193.838 96.4918 194.296 94.6777 194.362C83.3479 194.773 71.9423 194.834 61.1525 199.219C61.1525 198.954 61.1004 198.704 61.1004 198.453C61.1004 168.17 60.9062 137.887 61.1667 107.609C61.3751 83.8315 84.4989 66.1105 107.788 71.4348C125.683 75.5308 137.813 90.6062 137.832 108.885C137.867 138.525 137.875 168.167 137.856 197.811C137.856 198.283 138.031 198.798 137.61 199.256C133.854 197.296 129.818 196.526 125.768 195.949C117.356 194.799 108.872 194.251 100.381 194.31C98.9595 194.31 98.4859 193.885 98.4859 192.453C98.4848 189.567 98.6858 186.685 99.0874 183.827C99.8784 178.37 101.484 173.06 102.105 167.57C102.578 163.318 105.576 160.871 108.546 158.372C109.148 157.867 109.764 158.126 110.379 158.221C112.791 158.66 115.268 158.599 117.655 158.041C123.376 156.582 129.354 147.884 128.729 141.979C128.643 141.18 128.193 140.916 127.549 141.308C124.911 142.914 121.918 142.928 119.023 143.339C113.235 144.166 110.1 146.944 108.693 152.486C108.447 153.545 108.27 154.62 108.163 155.703C108.101 156.222 108.092 156.719 107.661 157.12C106.145 158.471 104.639 159.832 102.881 161.41C103.22 156.676 102.996 151.918 102.214 147.237C101.893 145.387 102.174 143.483 103.014 141.804C103.336 141.133 104.53 140.33 103.653 139.668C102.611 138.875 102.346 140.443 101.664 140.859C101.579 140.911 101.437 140.859 101.28 140.859C101.067 137.793 99.2911 134.665 102.005 131.774C102.555 131.183 102.687 130.744 103.545 131.269C105.605 132.52 107.883 132.213 110.124 131.954C110.597 131.897 111.218 131.769 111.279 131.132C111.35 130.418 110.682 130.366 110.228 130.253C108.727 129.913 107.389 129.069 106.439 127.862V127.876ZM99.7742 206.319C89.4581 206.225 79.5729 205.875 69.8062 204.047C67.454 203.682 65.1706 202.966 63.0329 201.921C61.9483 201.354 61.9341 200.782 63.0329 200.206C64.3539 199.542 65.7501 199.039 67.1916 198.708C76.6315 196.488 86.2514 196.025 95.8997 195.845C96.8471 195.845 97.1028 196.228 97.2449 197.045C97.4817 198.43 97.8133 199.804 98.1449 201.17C98.1689 201.399 98.281 201.609 98.4578 201.758C98.6345 201.906 98.8619 201.979 99.0922 201.963C99.19 201.954 99.2848 201.925 99.3709 201.878C99.4569 201.831 99.5323 201.766 99.5923 201.689C99.6523 201.611 99.6956 201.522 99.7196 201.427C99.7435 201.332 99.7476 201.233 99.7316 201.137C99.5848 200.149 100.281 200.145 100.911 200.041C102.627 199.771 104.376 199.782 106.088 200.074C106.803 200.192 107.864 200.546 107.983 199.488C108.101 198.43 106.936 198.59 106.259 198.496C104.419 198.163 102.533 198.176 100.698 198.534C99.4095 198.841 98.9974 198.387 98.8032 197.173C98.5853 195.713 99.4569 195.817 100.404 195.822C109.081 195.803 117.748 196.393 126.341 197.589C129.162 197.949 131.933 198.617 134.607 199.582C135.473 199.913 136.852 200.107 136.89 201.047C136.928 201.987 135.54 202.219 134.678 202.526C133.352 203.011 131.994 203.402 130.614 203.697C120.307 205.866 109.839 206.135 99.7742 206.319ZM137.771 203.239C138.116 206.504 137.846 206.985 134.635 208.2C132.1 209.127 129.479 209.801 126.81 210.212C111.682 212.721 96.4729 212.787 81.2402 211.629C75.4758 211.185 69.7162 210.486 64.2597 208.379C61.072 207.141 60.7026 206.404 61.4178 202.923C63.4591 204.009 65.6507 204.788 67.921 205.233C75.6795 206.919 83.5516 207.552 91.4711 207.699C107.068 207.978 122.68 208.124 137.771 203.239ZM111.63 112.13C111.63 114.02 111.653 115.409 111.63 116.803C111.54 121.347 109.337 124.56 105.302 126.535C102.536 127.886 99.5611 128.278 96.506 128.184C96.0589 128.211 95.6151 128.09 95.244 127.84C94.873 127.59 94.5955 127.224 94.4551 126.799C92.9962 123.261 93.9199 119.684 96.9797 117.379C99.2011 115.702 101.797 115.055 104.492 114.7C106.893 114.384 109.366 114.308 111.63 112.13ZM88.3308 166.871C85.6773 168.716 83.2776 170.9 81.1928 173.367C80.7191 173.906 79.4971 174.496 80.3971 175.361C81.297 176.225 81.818 175.002 82.3343 174.482C83.4284 173.4 84.4136 172.214 85.5267 171.175C86.8245 169.947 88.1366 168.69 89.9743 167.948C88.866 176.315 83.3053 180.194 72.4492 180.364C74.4054 171.477 80.2787 166.271 88.3308 166.871ZM110.673 156.478C111.256 155.944 111.62 155.599 112.004 155.263C114.467 153.109 117.115 151.176 119.919 149.486C120.449 149.155 121.51 148.942 120.999 148.021C120.378 146.906 119.63 147.917 119.08 148.234C116.354 149.802 113.79 151.636 111.426 153.709C111 154.082 110.673 154.701 109.858 154.72C110.555 150.629 111.942 147.133 116.092 145.63C119.464 144.416 123.121 144.728 126.64 143.599C124.561 153.969 119.014 158.481 110.659 156.463L110.673 156.478ZM92.9536 127.617C91.5948 127.099 90.359 126.306 89.3249 125.286C88.2909 124.265 87.4812 123.042 86.9477 121.692C85.7399 118.796 85.7636 115.678 85.3752 112.631C85.2899 111.974 85.5078 111.733 86.2325 111.804C88.8518 112.05 91.4853 112.206 94.1046 112.456C95.2149 112.488 96.2929 112.835 97.2118 113.458C93.0673 117.303 91.2579 121.777 92.9394 127.602L92.9536 127.617ZM91.689 145.054C91.0069 145.271 90.6375 144.818 90.2159 144.582C88.081 143.421 85.8649 142.415 83.5848 141.572C82.9216 141.336 81.9933 140.627 81.6238 141.686C81.2544 142.744 82.4717 142.739 83.0827 143.056C83.6937 143.372 84.5036 143.618 85.2141 143.939C86.853 144.695 88.5818 145.3 90.2064 146.471C81.4012 148.106 74.1022 143.164 73.8843 135.511C77.3562 136.98 81.0697 137.462 84.6031 138.582C87.9234 139.649 90.3533 141.7 91.6748 145.04L91.689 145.054ZM88.9655 105.814C88.2976 103.825 89.2686 103.924 90.7417 104.396C92.2147 104.869 93.8441 105.157 95.3929 105.549C97.4391 106.069 99.4995 106.579 101.243 107.85C103.137 109.239 103.137 109.683 101.148 110.765C100.338 111.2 99.6984 112.56 98.3675 111.445C96.2076 109.636 93.5457 108.861 90.8553 108.237C89.5244 107.93 88.2502 107.689 88.9512 105.8L88.9655 105.814ZM108.456 106.711C108.669 104.859 110.057 104.089 110.896 102.956C111.928 101.538 113.037 102.186 114.088 102.781C115.4 103.522 115.064 104.671 114.396 105.582C112.975 107.562 111.492 109.48 109.986 111.389C109.473 111.971 108.785 112.373 108.025 112.537C105.325 113.297 102.469 113.103 99.7553 113.992C100.864 112.711 102.289 112.022 103.668 111.256C106.064 109.915 108.636 108.866 110.735 107.004C111.347 106.535 111.854 105.943 112.222 105.266C112.316 105.098 112.347 104.901 112.308 104.712C112.27 104.524 112.166 104.355 112.013 104.236C111.606 103.867 111.308 104.179 111.033 104.439C110.251 105.162 109.645 106.041 108.442 106.697L108.456 106.711ZM92.5321 110.623C88.8186 110.576 85.6594 110.623 82.7132 109.126C81.893 108.743 81.1935 108.143 80.6907 107.392C79.8618 106.093 79.6724 104.756 80.5913 103.437C80.9877 102.806 81.5625 102.305 82.2434 101.998C82.9244 101.691 83.6811 101.592 84.4184 101.713C85.7967 101.954 86.7393 103.041 87.1087 104.448C87.3314 105.308 87.6771 106.475 87.0424 107C86.4077 107.524 85.5694 106.56 84.821 106.239C84.5321 106.116 84.3 105.861 84.011 105.724C83.5374 105.502 83.0637 104.779 82.538 105.483C82.0122 106.187 82.6895 106.674 83.1727 107.066C84.7594 108.341 86.6588 108.922 88.615 109.366C89.7517 109.617 90.9785 109.659 92.5179 110.609L92.5321 110.623ZM105.856 102.384C105.742 101.004 105.709 100.112 105.586 99.2281C105.463 98.3446 105.264 97.4753 105.074 96.6061C104.989 96.2092 104.942 95.8974 105.373 95.6329C106.557 94.9053 109.659 95.3305 110.611 96.4643C111.867 97.9478 111.516 99.5163 110.446 100.849C108.731 102.984 106.656 104.85 106.206 107.774C106.102 108.441 105.344 108.719 104.71 108.818C104.174 108.913 103.994 108.389 103.762 108.011C103.327 107.293 103.966 106.962 104.317 106.593C105.809 104.926 107.466 103.385 108.399 101.297C108.741 100.542 109.018 99.7601 109.228 98.9588C109.38 98.3635 109.228 97.6974 108.575 97.5415C107.665 97.31 107.822 98.1462 107.689 98.6564C107.366 100.02 106.739 101.294 105.856 102.384ZM90.7322 101.945C88.8849 100.107 89.6475 97.0974 92.4089 95.9588C94.6779 95.0729 97.0292 94.413 99.4285 93.9888C101.247 93.6345 102.394 94.8439 103.218 96.351C103.886 97.5698 104.193 98.7131 102.915 99.7525C100.594 96.5305 98.107 95.6281 94.1472 96.6202C91.4285 97.31 90.6327 99.3273 90.7227 101.945H90.7322ZM103.994 101.179C104.17 101.556 104.269 101.964 104.285 102.379C104.301 102.794 104.235 103.209 104.089 103.598C103.616 104.704 103.095 106.603 101.584 105.998C99.0914 105.028 96.5433 104.208 93.953 103.541C92.5842 103.178 92.5652 103.069 92.6126 101.467C96.4539 104.231 100.21 102.923 103.994 101.179ZM88.1555 101.959C86.6919 101.34 85.7872 100.57 85.3136 99.3887C84.9868 98.5667 84.982 97.7494 85.6972 97.1163C86.4125 96.4832 87.2224 96.5352 88.0655 96.7572C88.5392 96.8801 88.8944 97.1446 88.5392 97.7021C87.6866 98.9777 87.9803 100.371 88.1555 101.959ZM100.859 100.371C100.196 100.3 99.9542 99.7903 99.5706 99.4832C97.9649 98.2218 96.6671 98.373 95.4782 99.9556C95.2129 100.315 95.194 101.113 94.4362 100.697C94.1683 100.582 93.9348 100.399 93.7581 100.168C93.5814 99.936 93.4675 99.6628 93.4273 99.3745C93.3846 98.7367 93.9341 98.4816 94.4077 98.3446C96.0838 97.8685 97.8576 97.8521 99.5421 98.2974C100.409 98.5383 100.935 99.195 100.859 100.371ZM99.3479 129.615C99.8784 129.894 100.973 129.062 100.897 130.3C100.826 131.382 100.253 132.615 99.1537 132.771C98.0549 132.927 97.316 131.788 97.2591 130.787C97.136 129.213 98.5948 129.965 99.3479 129.615ZM106.453 130.366C105.179 130.494 104.189 129.95 103.227 129.152C105.032 127.834 105.619 129.44 106.467 130.366H106.453ZM91.8026 131.349C93.5409 129.228 93.5409 129.228 95.1845 129.809C94.2949 130.724 93.0931 131.274 91.8168 131.349H91.8026Z" fill="#E6E3DC"/>
<path d="M78.4899 56.2328C78.5237 51.1574 75.9 48.2154 70.5995 47.5119C68.0818 47.1738 65.5112 47.1829 63.1479 46.0865C62.1158 45.6297 61.9373 46.4018 61.7878 47.0961C60.9486 50.9975 61.8119 54.337 65.3086 56.8541C67.4163 58.3662 69.8615 59.2707 72.1862 60.3991C73.4337 60.9441 74.6089 61.6265 75.6877 62.432C76.8019 63.3457 77.3903 63.0076 77.6893 61.7422C78.1722 59.9398 78.4408 58.0918 78.4899 56.2328ZM76.3244 58.8139C75.3066 56.7113 73.946 54.7735 72.2923 53.0715C71.7763 52.5736 71.2023 51.6462 70.3921 52.3771C69.5818 53.1081 70.6236 53.5466 71.0576 54.008C72.7627 55.7798 74.1186 57.8268 75.0608 60.0519C72.6492 58.9099 70.5898 57.9779 68.5834 56.9957C67.7727 56.5984 66.9969 56.1401 66.2636 55.6252C65.1762 54.921 64.3087 53.9527 63.7521 52.8219C63.1954 51.6911 62.9701 50.4392 63.0996 49.1976C63.1479 48.5763 63.1431 47.8545 64.18 48.1606C66.5095 48.855 68.9644 48.7819 71.3326 49.2387C75.8421 50.0884 78.2536 54.5288 76.3244 58.8139Z" fill="#E6E3DC"/>
<path d="M57.195 71.9492C53.9972 72.0586 51.0596 72.2392 48.3146 73.4564C47.3365 73.8775 46.4532 74.4867 45.7161 75.2484C44.979 76.0101 44.403 76.9091 44.0215 77.8929C43.64 78.8767 43.4607 79.9256 43.4942 80.9786C43.5276 82.0315 43.7731 83.0673 44.2163 84.0255C44.4063 84.5072 44.7253 84.9288 45.1393 85.2454C45.5532 85.5619 46.0465 85.7615 46.5664 85.8227C49.374 86.2982 51.7097 85.4091 53.7468 83.5644C55.6732 81.8385 56.9301 79.6514 58.3026 77.5309C59.1157 76.2848 60.0033 75.0877 60.961 73.9461C61.8856 72.8478 61.5629 72.3486 60.2723 72.2012C59.1695 72.0776 58.057 72.0158 57.195 71.9492ZM57.2431 73.6228L55.9477 74.5214C53.9112 75.9156 51.9798 77.4538 50.1686 79.1237C49.7737 79.4803 49.3885 79.8606 49.8652 80.4264C50.342 80.9922 50.7899 80.6404 51.1992 80.3171C51.6086 79.9938 52.0854 79.5611 52.5429 79.195C53.9202 78.092 55.1482 76.7797 56.9253 76.1807C55.5672 78.9002 54.1032 81.5104 51.5171 83.3124C50.2627 84.1537 48.7402 84.5139 47.2358 84.3251C46.8774 84.308 46.5325 84.1845 46.2464 83.9707C45.9602 83.7569 45.7462 83.4628 45.6321 83.1269C44.4811 80.4217 45.5117 76.9461 48.04 75.4723C50.6888 73.8938 53.6312 73.5752 57.2431 73.6228Z" fill="#E6E3DC"/>
<path d="M42.7599 51.928C44.3871 52.1067 45.1631 51.1405 45.4084 49.6815C45.7388 47.749 45.0379 46.0677 43.8563 44.5459C42.3143 42.5602 40.3868 40.8548 39.2903 38.5503C38.9799 37.8981 38.4542 37.7435 37.8133 38.2508C36.1511 39.56 34.9345 44.8889 35.7506 47.3383C36.6268 49.9762 39.3554 51.8458 42.4545 51.928H42.7599ZM38.4392 40.734C39.7058 42.2124 40.9425 43.6618 42.1891 45.1256C42.9086 45.9176 43.431 46.8579 43.7162 47.8746C44.2469 50.0051 43.4458 50.7733 41.2829 50.1501C37.0573 48.9858 35.8457 45.0773 38.4392 40.734Z" fill="#E6E3DC"/>
<path d="M133.466 112.009C133.776 102.08 131.159 93.4802 124.896 86.3347C124.699 86.0926 124.49 85.8619 124.27 85.6435C123.833 85.2288 123.36 84.5805 122.761 85.2145C122.082 85.9343 122.848 86.349 123.233 86.759C127.632 91.464 130.562 97.5552 131.61 104.172C132.231 107.762 131.978 111.399 132.021 115.017C132.021 115.603 132.021 116.185 132.021 116.766C132.021 117.348 132.021 117.92 132.66 117.948C133.396 117.977 133.431 117.291 133.435 116.695C133.474 115.079 133.466 113.458 133.466 112.009Z" fill="#E6E3DC"/>
<path d="M113.504 79.413C113.467 79.634 113.504 79.8618 113.608 80.0567C113.712 80.2515 113.876 80.4011 114.072 80.4794C114.517 80.7755 114.98 81.0385 115.458 81.2665C116.086 81.5506 116.875 82.5332 117.373 81.4574C117.872 80.3816 116.65 80.2512 116.073 79.8507C115.532 79.4907 114.949 79.2074 114.34 79.0078C114.261 78.9693 114.175 78.9493 114.089 78.9492C114.002 78.9491 113.916 78.9689 113.837 79.0072C113.758 79.0456 113.687 79.1016 113.63 79.1715C113.572 79.2415 113.529 79.3238 113.504 79.413Z" fill="#E6E3DC"/>
<path d="M328.81 106.12C328.81 98.8799 332.32 94.6799 339.48 93.6699C342.89 93.1999 346.36 93.2099 349.56 91.6699C350.95 90.9899 351.19 92.1199 351.39 93.1099C352.53 98.6799 351.39 103.45 346.63 107.04C343.79 109.2 340.48 110.49 337.34 112.1C335.652 112.877 334.061 113.851 332.6 115C331.09 116.3 330.3 115.83 329.89 114C329.24 111.421 328.878 108.778 328.81 106.12ZM331.72 109.8C333.093 106.797 334.933 104.029 337.17 101.6C337.86 100.89 338.64 99.5999 339.74 100.6C340.84 101.6 339.42 102.27 338.83 102.93C336.53 105.458 334.701 108.377 333.43 111.55C336.71 109.92 339.43 108.55 342.18 107.19C343.28 106.61 344.33 105.941 345.32 105.19C346.791 104.186 347.964 102.805 348.717 101.192C349.47 99.5782 349.775 97.7918 349.6 96.0199C349.53 95.1299 349.54 94.0999 348.14 94.5399C344.99 95.5399 341.66 95.4299 338.46 96.0799C332.38 97.3899 329.17 103.69 331.73 109.8H331.72Z" fill="#E6E3DC"/>
<path d="M408.05 106.12C408.05 98.8799 411.55 94.6799 418.72 93.6699C422.12 93.1999 425.6 93.2099 428.79 91.6699C430.19 90.9899 430.43 92.1199 430.63 93.1099C431.76 98.6799 430.63 103.45 425.87 107.04C423.02 109.2 419.71 110.49 416.57 112.1C414.885 112.877 413.298 113.851 411.84 115C410.33 116.3 409.54 115.83 409.13 114C408.476 111.422 408.113 108.779 408.05 106.12ZM410.95 109.8C412.327 106.799 414.166 104.032 416.4 101.6C417.1 100.89 417.88 99.5999 418.97 100.6C420.06 101.6 418.66 102.27 418.07 102.93C415.77 105.46 413.938 108.379 412.66 111.55C415.95 109.92 418.66 108.55 421.42 107.19C422.515 106.608 423.562 105.939 424.55 105.19C426.021 104.186 427.195 102.805 427.948 101.192C428.701 99.5782 429.006 97.7918 428.83 96.0199C428.77 95.1299 428.77 94.0999 427.37 94.5399C424.22 95.5399 420.9 95.4299 417.7 96.0799C411.61 97.3899 408.39 103.69 410.95 109.8Z" fill="#E6E3DC"/>
<path d="M266.23 113.689C266.226 120.968 263.867 128.051 259.505 133.878C255.143 139.705 249.013 143.964 242.03 146.019L259.37 177.519L256.37 179.169L238.6 146.839C236.577 147.232 234.521 147.429 232.46 147.429H203.67V180.049H193.49V79.9494H232.49C237 79.9355 241.465 80.8441 245.61 82.6194C249.639 84.2903 253.297 86.7407 256.376 89.8296C259.455 92.9186 261.893 96.5854 263.55 100.619C265.327 104.747 266.239 109.195 266.23 113.689ZM239.7 141.779C245.914 138.255 250.786 132.772 253.556 126.186C256.325 119.601 256.836 112.283 255.009 105.377C253.182 98.4706 249.119 92.3636 243.455 88.0096C237.791 83.6556 230.844 81.2995 223.7 81.3094H203.7V146.059H223.7C228.853 146.085 233.935 144.849 238.5 142.459L239.7 141.779Z" fill="#E6E3DC"/>
<path d="M327.14 144.7V121.92H337.32V180.05H327.14V146.94L321.71 152.08L317.01 156.53C313.99 159.45 311.573 161.74 309.76 163.4C305.128 168.012 299.906 171.99 294.23 175.23C292.529 176.109 290.78 176.89 288.99 177.57C287.061 178.289 285.087 178.88 283.08 179.34C281.117 179.825 279.102 180.07 277.08 180.07C275.199 180.056 273.329 179.77 271.53 179.22C269.867 178.747 268.334 177.899 267.05 176.74C265.763 175.59 264.763 174.155 264.13 172.55C263.523 170.929 263.274 169.196 263.4 167.47C263.527 165.744 264.024 164.066 264.86 162.55C267.479 158.048 271.176 154.267 275.62 151.55C274.024 151.13 272.616 150.186 271.62 148.87C270.37 147.226 269.533 145.305 269.18 143.27C268.789 141.218 268.874 139.104 269.43 137.09C270.011 135.073 270.949 133.176 272.2 131.49C274.61 128.024 278.002 125.36 281.94 123.84C285.452 122.51 289.186 121.865 292.94 121.94H294.31C300.364 122.265 306.062 124.902 310.228 129.307C314.395 133.711 316.711 139.547 316.7 145.61V155L327.14 144.7ZM306.5 139.1V137.16C306.56 135.373 306.25 133.592 305.587 131.931C304.924 130.27 303.924 128.765 302.65 127.51C301.414 126.207 299.916 125.182 298.254 124.503C296.592 123.824 294.804 123.506 293.01 123.57C289.393 123.288 285.758 123.785 282.35 125.03C278.527 126.334 275.194 128.777 272.8 132.03C271.534 133.596 270.562 135.378 269.93 137.29C269.35 139.214 269.2 141.242 269.49 143.23C269.779 145.249 270.547 147.169 271.73 148.83C272.657 150.181 274.043 151.151 275.63 151.56C285.072 145.555 295.535 141.332 306.5 139.1ZM306.5 164.86L306.45 139.86C304.603 140.28 302.603 140.8 300.45 141.42C298.31 142.04 295.73 142.95 292.73 144.15C289.894 145.268 287.138 146.578 284.48 148.07C281.942 149.522 279.592 151.278 277.48 153.3C275.473 155.117 273.901 157.363 272.88 159.87C272.131 161.959 272.037 164.226 272.61 166.37C273.192 168.806 274.43 171.037 276.19 172.82C278.214 174.799 280.892 175.97 283.72 176.11C286.913 176.423 290.783 175.423 295.33 173.11C298.404 171.479 301.279 169.499 303.9 167.21L306.5 164.86ZM306.5 180.05V169.82C310.055 166.82 313.45 163.636 316.67 160.28V180.05H306.5Z" fill="#E6E3DC"/>
<path d="M373.98 121.919C380.28 121.924 386.321 124.429 390.775 128.884C395.23 133.339 397.735 139.379 397.74 145.679V180.049H387.56V137.199C387.564 135.415 387.216 133.647 386.535 131.998C385.854 130.348 384.853 128.85 383.592 127.588C382.33 126.326 380.831 125.326 379.182 124.645C377.532 123.964 375.765 123.615 373.98 123.619C371.167 123.664 368.39 124.266 365.81 125.389C363.003 126.524 360.46 128.226 358.34 130.389C357.388 131.255 356.618 132.3 356.074 133.466C355.53 134.632 355.222 135.894 355.17 137.179V180.029H345.01V121.919H355.18V132.919C357.02 129.559 359.75 126.77 363.07 124.859C366.377 122.918 370.146 121.903 373.98 121.919Z" fill="#E6E3DC"/>
<path d="M415.75 180.05H405.57V121.92H415.75V180.05Z" fill="#E6E3DC"/>
<path d="M452.51 121.92C458.812 121.92 464.855 124.423 469.311 128.879C473.767 133.335 476.27 139.379 476.27 145.68V180.05H466.09V137.2C466.095 135.415 465.748 133.647 465.067 131.997C464.386 130.347 463.386 128.848 462.124 127.586C460.862 126.324 459.363 125.324 457.713 124.643C456.063 123.962 454.295 123.615 452.51 123.62C449.7 123.672 446.927 124.277 444.35 125.4C441.542 126.535 438.999 128.237 436.88 130.4C435.929 131.266 435.16 132.312 434.618 133.477C434.075 134.643 433.77 135.905 433.72 137.19V180.04H423.54V121.92H433.72V132.92C435.556 129.56 438.283 126.772 441.6 124.86C444.907 122.92 448.676 121.904 452.51 121.92Z" fill="#E6E3DC"/>
<path d="M550.13 119.089C548.543 120.176 546.827 121.06 545.02 121.719C544.992 121.608 544.992 121.491 545.02 121.379C545.02 121.279 545.08 121.139 545.14 120.939C545.193 120.815 545.227 120.684 545.24 120.549C545.312 120.094 545.277 119.629 545.14 119.189C544.845 118.243 544.311 117.389 543.59 116.709C542.845 116.025 541.941 115.536 540.96 115.289C540.434 115.155 539.887 115.124 539.35 115.199C539.216 115.207 539.084 115.237 538.96 115.289C538.854 115.343 538.738 115.377 538.62 115.389C534.642 118.619 531.063 122.312 527.96 126.389C531.998 128.68 535.363 131.99 537.72 135.989C540.115 139.957 541.4 144.495 541.44 149.129C541.479 153.983 540.088 158.741 537.44 162.809C534.722 167.023 530.946 170.451 526.49 172.749C521.895 175.116 516.806 176.366 511.638 176.399C506.469 176.432 501.365 175.247 496.74 172.939C496.187 173.719 495.807 174.279 495.6 174.619C495.38 174.959 495.04 175.549 494.6 176.369C494.226 176.978 493.933 177.634 493.73 178.319C493.597 178.865 493.507 179.42 493.46 179.979C493.418 180.26 493.433 180.546 493.504 180.821C493.574 181.095 493.699 181.353 493.87 181.579C494.264 182.057 494.778 182.419 495.36 182.629C497.953 183.594 500.632 184.311 503.36 184.769C505.36 185.129 508.817 185.909 513.73 187.109C520.093 188.533 526.343 190.421 532.43 192.759C537.578 194.418 542.085 197.632 545.33 201.959C546.773 203.967 547.399 206.448 547.08 208.899C546.716 211.2 545.815 213.382 544.45 215.269C542.928 217.367 541.09 219.216 539 220.749C536.901 222.349 534.67 223.768 532.33 224.989C530.294 226.049 528.178 226.945 526 227.669C520.672 229.446 515.086 230.325 509.47 230.269C503.832 230.226 498.241 229.253 492.92 227.389C490.557 226.668 488.363 225.477 486.47 223.889C484.589 222.324 483.056 220.382 481.97 218.189C481.626 217.323 481.47 216.394 481.511 215.464C481.552 214.533 481.791 213.621 482.21 212.789C482.605 211.953 483.162 211.204 483.849 210.584C484.535 209.964 485.338 209.487 486.21 209.179C486.6 208.959 486.81 208.859 486.84 208.889C486.87 208.919 486.75 209.019 486.45 209.179C485.77 209.522 485.184 210.025 484.743 210.645C484.302 211.266 484.02 211.985 483.92 212.739C483.726 214.235 483.998 215.754 484.7 217.089C485.385 218.438 486.33 219.637 487.48 220.619C491.811 224.09 497.05 226.239 502.57 226.809C509.019 227.943 515.645 227.525 521.9 225.589C523.883 224.938 525.773 224.031 527.52 222.889C529.028 221.927 530.378 220.736 531.52 219.359C532.486 218.158 533.327 216.862 534.03 215.489C534.647 214.351 534.989 213.084 535.03 211.789C535.046 210.756 534.898 209.726 534.59 208.739C532.599 204.766 529.346 201.565 525.34 199.639C520.667 197.125 515.837 194.914 510.88 193.019C507.7 191.719 505.317 190.763 503.73 190.149C503.04 189.849 501.99 189.459 500.56 188.979C499.13 188.499 498.06 188.119 497.35 187.859C496.835 187.627 496.307 187.424 495.77 187.249C495.037 186.998 494.319 186.704 493.62 186.369C493.22 186.159 492.62 185.839 491.89 185.369C491.244 185.012 490.681 184.521 490.24 183.929C489.894 183.436 489.662 182.873 489.56 182.279C489.526 181.389 489.79 180.513 490.31 179.789C490.918 178.776 491.611 177.816 492.38 176.919C493.16 176.013 494.16 174.909 495.38 173.609L495.81 173.389C495.89 173.309 495.98 173.219 496.08 173.099C496.169 172.989 496.266 172.885 496.37 172.789C491.922 170.626 488.158 167.275 485.495 163.106C482.832 158.938 481.374 154.115 481.28 149.169C481.243 144.316 482.634 139.558 485.28 135.489C487.996 131.276 491.772 127.851 496.23 125.559C501.048 123.074 506.407 121.822 511.827 121.914C517.247 122.007 522.56 123.441 527.29 126.089C528.79 124.089 530.253 122.256 531.68 120.589C533.58 118.327 535.891 116.444 538.49 115.039C539.744 114.108 541.206 113.497 542.75 113.259C544.295 113.016 545.875 113.161 547.35 113.679C548.505 114.212 549.491 115.053 550.2 116.109C550.558 116.527 550.749 117.063 550.736 117.613C550.723 118.163 550.507 118.689 550.13 119.089ZM491.46 148.989C491.422 152.685 492.066 156.357 493.36 159.819C494.642 163.283 496.558 166.477 499.01 169.239C501.89 164.886 506.1 158.273 511.64 149.399C517.18 140.526 521.393 133.913 524.28 129.559C522.685 127.652 520.699 126.109 518.456 125.034C516.213 123.959 513.766 123.378 511.28 123.329C507.658 123.328 504.139 124.535 501.28 126.759C498.107 129.203 495.617 132.424 494.05 136.109C492.279 140.169 491.396 144.561 491.46 148.989ZM531.24 148.989C531.422 142.127 529.141 135.426 524.81 130.099C522.57 133.499 518.57 139.713 512.81 148.739C507.05 157.766 502.553 164.696 499.32 169.529C500.891 171.141 502.768 172.423 504.84 173.301C506.913 174.178 509.139 174.633 511.39 174.639C515.013 174.643 518.532 173.435 521.39 171.209C524.57 168.765 527.069 165.545 528.65 161.859C530.425 157.804 531.309 153.415 531.24 148.989Z" fill="#E6E3DC"/>
<path d="M660.23 117.689C660.226 124.968 657.867 132.051 653.505 137.878C649.143 143.705 643.013 147.964 636.03 150.019L653.37 181.519L650.37 183.169L632.59 150.839C630.571 151.232 628.518 151.43 626.46 151.429H597.67V184.049H587.49V83.9494H626.49C631.001 83.9339 635.467 84.8461 639.61 86.6294C643.635 88.2906 647.292 90.7307 650.37 93.8094C653.449 96.8881 655.889 100.545 657.55 104.569C659.334 108.713 660.246 113.179 660.23 117.689ZM633.7 145.759C639.914 142.235 644.786 136.752 647.556 130.166C650.325 123.581 650.836 116.264 649.009 109.357C647.182 102.451 643.119 96.3437 637.455 91.9896C631.791 87.6356 624.844 85.2796 617.7 85.2894H597.7V150.049H617.7C622.855 150.076 627.937 148.837 632.5 146.439L633.7 145.759Z" fill="#E6E3DC"/>
<path d="M736.23 140.129C736.547 142.03 737.554 143.747 739.06 144.949C740.95 146.617 743.08 147.989 745.38 149.019C747.92 150.199 750.68 151.379 753.69 152.549C756.7 153.719 759.69 154.909 762.62 156.129C765.372 157.249 768.063 158.514 770.68 159.919C772.899 161.076 774.874 162.648 776.5 164.549C777.881 166.112 778.627 168.135 778.59 170.219C778.49 172.846 776.997 175.283 774.11 177.529C770.713 180.003 766.843 181.749 762.74 182.659C757.978 183.854 753.055 184.273 748.16 183.899C739.787 183.807 731.664 181.027 724.99 175.969L734.48 168.659C734.324 170.516 734.584 172.385 735.242 174.129C735.899 175.872 736.937 177.448 738.28 178.739C739.567 180.098 741.137 181.157 742.879 181.839C744.622 182.522 746.493 182.812 748.36 182.689C754.073 182.816 758.543 181.913 761.77 179.979C763.317 179.1 764.614 177.841 765.538 176.32C766.462 174.799 766.983 173.068 767.05 171.289C767.21 169.049 766.13 166.979 763.79 165.059C761.064 162.926 758.029 161.22 754.79 159.999C751.117 158.539 747.36 157.103 743.52 155.689C739.786 154.321 736.171 152.649 732.71 150.689C729.377 148.789 727.113 146.769 725.92 144.629C720.903 147.965 715.611 150.865 710.1 153.299C702.408 156.819 693.939 158.293 685.51 157.579C681.309 157.225 677.196 156.174 673.34 154.469C670.665 153.252 668.187 151.641 665.99 149.689C665.104 156.042 665.908 162.516 668.32 168.459C669.867 172.346 672.363 175.784 675.58 178.459C678.256 180.751 681.64 182.049 685.161 182.135C688.683 182.221 692.126 181.088 694.91 178.929C697.941 176.61 700.37 173.595 701.99 170.139C703.862 166.273 704.978 162.085 705.28 157.799C707.547 157.053 709.493 156.339 711.12 155.659C712.747 154.979 714.223 154.296 715.55 153.609C715.55 153.769 715.55 153.999 715.55 154.289C715.55 154.579 715.55 154.799 715.55 154.919C715.566 162.583 712.556 169.943 707.174 175.398C701.792 180.853 694.473 183.962 686.81 184.049C681.123 184.151 675.533 182.568 670.743 179.5C665.953 176.433 662.177 172.017 659.89 166.809C657.935 162.45 657.085 157.676 657.415 152.91C657.745 148.143 659.245 143.532 661.782 139.484C664.319 135.435 667.816 132.075 671.961 129.701C676.107 127.326 680.774 126.01 685.55 125.869C689.804 125.818 694.019 126.681 697.91 128.399C701.777 130.096 705.232 132.606 708.04 135.759C710.892 138.937 713.034 142.688 714.32 146.759C712.18 147.826 710.2 148.749 708.38 149.529C708.03 149.689 706.95 150.099 705.17 150.749C704.64 144.669 702.319 138.881 698.5 134.119C694.8 129.659 690.467 127.429 685.5 127.429C680.733 127.429 676.513 129.529 672.84 133.729C669.05 138.208 666.66 143.703 665.97 149.529C671.642 153.765 678.475 156.163 685.55 156.399C693.753 156.895 701.95 155.338 709.4 151.869C714.916 149.484 720.226 146.651 725.28 143.399C724.859 142.245 724.742 141.002 724.94 139.789C725.52 135.436 728.383 131.989 733.53 129.449C738.677 126.909 745.103 125.763 752.81 126.009C761.789 126.009 770.548 128.782 777.89 133.949L768.39 141.249C768.436 139.404 768.06 137.572 767.293 135.893C766.525 134.214 765.386 132.732 763.96 131.559C760.813 128.85 756.822 127.319 752.67 127.229C747.337 126.969 743.15 128.083 740.11 130.569C738.664 131.667 737.54 133.134 736.857 134.817C736.175 136.499 735.958 138.334 736.23 140.129Z" fill="#E6E3DC"/>
<path d="M857.56 140.13C857.876 142.031 858.884 143.748 860.39 144.95C862.279 146.618 864.41 147.99 866.71 149.02C869.25 150.2 872.01 151.37 875.02 152.52C878.03 153.67 881.02 154.86 883.95 156.08C886.705 157.205 889.395 158.48 892.01 159.9C894.227 161.067 896.203 162.645 897.83 164.55C899.211 166.112 899.957 168.135 899.92 170.22C899.82 172.847 898.327 175.29 895.44 177.55C892.063 180.056 888.201 181.831 884.1 182.76C879.345 183.955 874.428 184.374 869.54 184C861.163 183.908 853.038 181.128 846.36 176.07L855.86 168.71C855.752 170.564 856.034 172.419 856.687 174.158C857.341 175.896 858.351 177.478 859.653 178.801C860.955 180.125 862.52 181.161 864.247 181.843C865.974 182.525 867.825 182.837 869.68 182.76C875.4 182.887 879.88 181.984 883.12 180.05C884.673 179.176 885.977 177.918 886.906 176.397C887.836 174.875 888.36 173.142 888.43 171.36C888.474 170.455 888.329 169.55 888.005 168.703C887.682 167.856 887.186 167.086 886.55 166.44C885.018 164.77 883.177 163.412 881.13 162.44C878.89 161.34 876.293 160.18 873.34 158.96C870.387 157.74 867.503 156.63 864.69 155.63C861.847 154.605 859.069 153.409 856.37 152.05C854.041 150.936 851.858 149.539 849.87 147.89C846.174 154.807 842.077 161.502 837.6 167.94C834.084 173.737 829.072 178.48 823.09 181.67C820.269 183.052 817.198 183.853 814.061 184.024C810.925 184.196 807.785 183.736 804.83 182.67C797.998 180.738 792.108 176.374 788.27 170.401C784.432 164.428 782.909 157.258 783.99 150.24C785.092 143.225 788.729 136.858 794.212 132.346C799.696 127.834 806.644 125.491 813.74 125.76C817.214 125.726 820.678 126.153 824.04 127.03C826.967 127.78 829.741 129.032 832.24 130.73C834.549 132.317 836.371 134.516 837.5 137.08C838.695 139.881 839.117 142.951 838.72 145.97C838.426 148.831 837.326 151.549 835.55 153.81L835.41 153.95C833.612 156.175 831.384 158.015 828.86 159.36C826.19 160.835 823.32 161.917 820.34 162.57C817.385 163.217 814.363 163.502 811.34 163.42C808.551 163.384 805.785 162.915 803.14 162.03C800.769 161.283 798.508 160.22 796.42 158.87C795.507 158.225 794.675 157.473 793.94 156.63C794.109 161.043 795.127 165.383 796.94 169.41C798.474 172.977 800.852 176.117 803.87 178.56C806.534 180.74 809.858 181.952 813.3 182C816.43 181.986 819.526 181.34 822.4 180.1C828.282 177.229 833.265 172.802 836.81 167.3C840.784 162.012 844.457 156.503 847.81 150.8C848.03 150.44 848.35 149.9 848.81 149.19L849.71 147.58C848.551 146.655 847.646 145.451 847.08 144.08C846.496 142.713 846.275 141.218 846.44 139.74C847.027 135.387 849.9 131.94 855.06 129.4C860.22 126.86 866.647 125.73 874.34 126.01C883.292 126.021 892.022 128.794 899.34 133.95L889.84 141.25C889.886 139.405 889.51 137.573 888.743 135.894C887.975 134.215 886.835 132.733 885.41 131.56C882.263 128.851 878.272 127.32 874.12 127.23C868.787 126.97 864.6 128.084 861.56 130.57C860.093 131.655 858.948 133.116 858.243 134.799C857.539 136.482 857.303 138.324 857.56 140.13ZM793.88 154.64V155.28C794.87 156.167 796.007 156.875 797.24 157.37C799.321 158.308 801.511 158.98 803.76 159.37C808.248 160.15 812.843 160.069 817.3 159.13H817.44C820.093 158.676 822.556 157.46 824.53 155.63C826.467 153.898 827.938 151.708 828.81 149.26C829.646 146.764 829.896 144.109 829.54 141.5C829.212 138.781 828.178 136.195 826.54 134C825.173 131.871 823.282 130.129 821.047 128.944C818.812 127.758 816.309 127.168 813.78 127.23C810.118 127.246 806.578 128.549 803.78 130.91C800.567 133.582 798.08 137.021 796.55 140.91C794.749 145.262 793.841 149.931 793.88 154.64Z" fill="#E6E3DC"/>
</svg>
