<svg preserveAspectRatio="xMidYMid meet" data-bbox="10 23.5 180 153" viewBox="10 23.5 180 153" height="200" width="200" xmlns="http://www.w3.org/2000/svg" data-type="color" role="presentation" aria-hidden="true" aria-label="">
    <g>
        <path d="M71.885 167.147s6.187-19.082 31.31-36.293 50.808-23.572 50.808-23.572l1.125 1.31s-29.059 7.109-53.057 26.378c-23.999 19.268-30.936 41.53-30.936 41.53l.75-9.353z" fill="#484F42" data-color="1"></path>
        <path d="M153.253 108.03s3.375-9.728 15.374-12.721C180.626 92.315 190 92.877 190 92.877s-1.312 9.541-15.186 13.843c-13.874 4.303-22.311 2.246-22.311 2.246l.75-.936z" fill="#484F42" data-color="1"></path>
        <path d="M132.567 114.685s-1.304-6.308 3.454-13.786c4.757-7.478 9.971-10.47 14.207-13.265 4.236-2.797 6.321-5.722 6.321-5.722s.065 6.567-4.822 13.851c-4.888 7.283-9.84 11.575-12.578 14.307-2.738 2.729-6.582 4.615-6.582 4.615z" fill="#484F42" data-color="1"></path>
        <path d="M128.2 118.717s13.62-3.382 25.09-2.277c11.47 1.106 12.252 1.951 16.944 2.666 4.692.715 5.148.195 5.213.39s-6.076 4.709-16.618 5.397c-11.154.729-20.034.056-26.589-2.731-3.919-1.665-4.04-3.445-4.04-3.445z" fill="#484F42" data-color="1"></path>
        <path d="M102.85 130.618s-.652-8.779 2.281-15.477c2.933-6.697 8.016-11.054 10.166-13.136 2.151-2.081 2.672-3.316 2.672-3.316s1.564 5.527-3.193 15.802c-4.758 10.274-11.926 16.127-11.926 16.127z" fill="#484F42" data-color="1"></path>
        <path d="M101.872 135.169s11.73-5.007 20.984-4.942c9.254.064 17.335 4.357 17.335 4.551 0 .195-1.434.456-6.778 2.472s-16.097 4.812-23.265 3.056c-7.168-1.756-8.276-5.137-8.276-5.137z" fill="#484F42" data-color="1"></path>
        <path d="M80.106 152.466s-1.434-8.779 1.434-18.338c2.867-9.559 9.384-14.371 11.209-16.322 1.825-1.952 2.607-.651 2.737.389.131 1.041.065 9.495-4.366 18.468-4.432 8.976-11.014 15.803-11.014 15.803z" fill="#484F42" data-color="1"></path>
        <path d="M80.692 158.515s7.103-9.104 17.074-11.641c9.008-2.291 12.969-.845 15.706-1.17s2.085.65 1.304 2.146c-.782 1.496-7.821 10.079-19.681 11.64-10.828 1.425-14.403-.975-14.403-.975z" fill="#484F42" data-color="1"></path>
        <path d="M88.385 96.431s-6.563 12.721-12.562 40.222c-5.999 27.5-7.312 39.847-7.312 39.847h2.624s7.499-38.725 11.624-55.375c4.125-16.649 9.374-23.197 9.374-23.197l-3.748-1.497z" fill="#DFE5D2" data-color="2"></path>
        <path d="M83.815 97.088s5.112 3.863 13.63 3.709c8.519-.155 12.392-3.4 16.264-7.11s8.364-1.7 14.715-2.783c6.351-1.081 13.011-8.037 10.068-15.61-2.943-7.573-6.196-11.128-3.562-17.464 2.633-6.338 6.041-11.902-2.788-17.465-8.829-5.564-12.857-1.237-17.348-8.038-4.492-6.8-9.294-9.891-17.813-8.5-8.519 1.392-10.378 5.873-13.631 10.51s-10.687 2.473-17.812 8.809-7.28 14.684-5.421 19.629c1.859 4.946 6.506 4.946 6.506 8.501 0 3.554-3.254 4.945-.93 10.046 2.324 5.101 5.731 8.655 8.674 8.037 2.943-.617 6.815-3.091 7.125.155s.31 4.483 1.084 6.029c.773 1.545 1.239 1.545 1.239 1.545z" fill="#E89394" data-color="3"></path>
        <path d="M93.727 59.684s-7.279 5.255-6.35 10.357c.929 5.101 4.647 5.563 6.505 5.718 1.858.155 3.252-1.7 3.252-1.7s.31 6.182 4.647 7.573c4.337 1.391 8.055-.464 6.971-4.018-1.085-3.555-2.788-6.956-1.859-6.956s6.196 3.401 10.843 2.783c4.647-.618 1.083-2.473-1.549-4.482-2.633-2.009-6.04-2.009-6.04-2.009s4.492-1.545 6.505-4.328c2.014-2.783 2.169-6.336-1.084-7.728-3.253-1.391-3.718-.618-5.267-.309-1.549.309-2.323 2.009-2.323 2.009s-.62-5.872-4.027-7.419c-3.408-1.546-3.408 1.701-8.364 2.782-4.956 1.082-3.253 5.101-2.788 6.028.464.927.928 1.699.928 1.699z" fill="#DFE5D2" data-color="2"></path>
        <path d="M119.904 46.856s2.478 1.082 3.098 5.255-.619 6.336-.619 6.336 3.873-4.019 2.788-7.572c-1.085-3.555-5.267-4.019-5.267-4.019z" fill="#DFE5D2" data-color="2"></path>
        <path d="M121.144 79.777s3.718-.773 4.801-4.792c1.084-4.019.62-6.491.62-6.491s2.013 5.255.464 8.5c-1.549 3.246-5.885 2.783-5.885 2.783z" fill="#DFE5D2" data-color="2"></path>
        <path d="M93.882 85.65s.929 1.854 5.266 2.782c4.337.927 7.745-.618 7.745-.618s-2.014 3.246-6.506 2.936c-4.491-.308-6.505-5.1-6.505-5.1z" fill="#DFE5D2" data-color="2"></path>
        <path d="M91.249 39.128s1.704-6.337 8.055-6.491c6.35-.155 8.674 4.946 8.674 4.946s-3.872-3.245-9.913-1.7c-6.041 1.545-6.816 3.245-6.816 3.245z" fill="#DFE5D2" data-color="2"></path>
        <path d="M75.915 51.183s-4.337 1.7-5.267 6.492c-.929 4.791 2.478 8.963 2.478 8.963s-1.085-3.553 0-8.809c1.085-5.254 2.789-6.646 2.789-6.646z" fill="#DFE5D2" data-color="2"></path>
        <path d="M106.485 62.918c-.77-.28-1.551-.186-2.303.091.304-.85.343-1.666-.286-2.107-1.173-.823-1.823.065-2.221 1.234-.225-.53-.53-1.018-.995-1.427-.433-.38-1.229.015-1.229.575 0 .772.17 1.469.421 2.146-.966-.498-1.923-.92-3.183-1.132-.66-.111-1.125.811-.661 1.282a7.046 7.046 0 0 0 1.616 1.203c-.929.193-1.836.517-2.727.97-.617.314-.558 1.175.068 1.437.585.244 1.173.32 1.761.297a5.32 5.32 0 0 0-.612 1.568c-.093.453.339.764.715.842 1.051.221 2.156-.388 3.084-1.236-.013.802-.006 1.597.105 2.402.045.326.372.627.704.633 1.297.026 1.748-.727 1.858-1.7.595.581 1.3.871 2.078.404.335-.201.606-.653.368-1.041-.213-.347-.402-.691-.591-1.029.688.032 1.314-.161 1.635-.782.497-.961.197-1.506-.405-1.827a4.881 4.881 0 0 0 1.264-1.801c.161-.393-.075-.86-.464-1.002z" fill="#1B1919" data-color="4"></path>
        <path d="M67.948 175.565s-3.187-14.779-1.874-27.313c1.312-12.534 7.124-28.436 3.187-40.409-3.937-11.974-15.561-9.916-18.186-19.456-2.625-9.542.937-14.218-4.687-18.334s-6.079-5.318-7.124-13.657c-.937-7.483-6.749-10.476-13.499-12.16s-9.749-4.864-9.749-4.864 2.812 2.993-1.875 11.037-6 16.089-.75 22.449c5.25 6.361 4.688 11.225 3.75 16.837-.938 5.613-2.624 12.347 4.874 17.398 7.499 5.051 9.936 7.483 9.749 15.341s3.75 14.405 12.937 16.65 14.624 9.728 16.499 18.521c1.874 8.792.187 18.52.187 18.52l6.561-.56z" fill="#484F42" data-color="1"></path>
        <path d="M63.857 147.63s-.351-16.215-6.886-24.946c-6.535-8.732-14.048-13.737-16.928-18.378-2.88-4.642.776-10.72-.664-17.02-1.44-6.301-2.215-8.621-8.196-15.916s-4.209-11.716-6.313-16.579-3.544-5.637-3.544-5.637 3.192 3.949 3.713 9.671 2.085 10.274 5.344 13.526c3.258 3.251 8.081 12.875 7.951 17.167-.13 4.293-1.955 9.625-.261 14.307s10.297 11.315 15.641 17.168c5.344 5.852 7.038 12.225 8.211 16.907 1.171 4.682 1.932 9.73 1.932 9.73z" fill="#DFE5D2" data-color="2"></path>
        <path d="M30.063 50.107c-.134-.657-1.15-.421-1.015.237.885 4.317.049 8.676-.014 13.029-.01.669 1.033.705 1.043.032.064-4.45.891-8.886-.014-13.298z" fill="#DFE5D2" data-color="2"></path>
        <path d="M34.234 55.161c-.078 4.8-1.157 9.456-1.999 14.161-.119.661.921.755 1.038.099.843-4.705 1.921-9.36 1.999-14.16.01-.667-1.028-.771-1.038-.1z" fill="#DFE5D2" data-color="2"></path>
        <path d="M37.033 62.925c-.098 3.429-1.353 6.634-1.999 9.972-.128.661.908.782 1.035.128.646-3.342 1.901-6.54 1.999-9.972.019-.665-1.016-.797-1.035-.128z" fill="#DFE5D2" data-color="2"></path>
        <path d="M40.428 70.149c.085 3.202-1.297 6.185-1.399 9.374-.021.671 1.02.714 1.042.042.102-3.19 1.485-6.164 1.399-9.374-.019-.668-1.06-.714-1.042-.042z" fill="#DFE5D2" data-color="2"></path>
        <path d="M44.625 75.576c-.14 6.584-2.868 12.64-4.186 19.012-.136.658.882.883 1.018.226 1.338-6.467 4.067-12.599 4.209-19.281.015-.673-1.027-.624-1.041.043z" fill="#DFE5D2" data-color="2"></path>
        <path d="M47.233 89.41c-.663 3.202-2.018 6.084-2.998 9.174-.777 2.452-2.218 4.66-1.808 7.32.101.657 1.143.594 1.04-.068-.404-2.619 1.143-5.409 2.105-7.812 1.098-2.745 2.082-5.504 2.683-8.404.136-.658-.886-.866-1.022-.21z" fill="#DFE5D2" data-color="2"></path>
        <path d="M51.462 94.663c-.093-.662-1.134-.588-1.039.076.767 5.433-2.769 10.309-1.999 15.757.093.661 1.134.588 1.04-.077-.768-5.432 2.768-10.31 1.998-15.756z" fill="#DFE5D2" data-color="2"></path>
        <path d="M56.638 98.741c-.131-.66-1.128-.354-.999.298.989 4.983-2.229 9.507-3.007 14.293-.107.66.908.897 1.016.233.818-5.026 4.03-9.586 2.99-14.824z" fill="#DFE5D2" data-color="2"></path>
        <path d="M61.169 101.592c-.333-.585-1.196-.001-.867.578 1.201 2.11-.327 5.897-.93 8.012-.731 2.561-1.764 5.115-2.147 7.759-.096.661.929.856 1.025.189.443-3.057 1.674-6.023 2.494-8.991.607-2.201 1.661-5.377.425-7.547z" fill="#DFE5D2" data-color="2"></path>
        <path d="M65.012 107.448c-.553 6.128-4.015 11.562-4.197 17.751-.019.67 1.023.706 1.043.034.181-6.173 3.644-11.624 4.197-17.751.06-.667-.983-.7-1.043-.034z" fill="#DFE5D2" data-color="2"></path>
        <path d="M23.942 61.639c-.982-1.069-2.246-1.79-3.396-2.659-1.594-1.205-2.239-3.207-3.322-4.811-.372-.552-1.296-.067-.919.49.914 1.353 1.548 2.866 2.562 4.156 1.156 1.469 3.051 2.16 4.31 3.531.455.495 1.219-.214.765-.707z" fill="#DFE5D2" data-color="2"></path>
        <path d="M26.463 70.546c-4.627-2.571-8.918-5.801-12.091-10.076-.4-.54-1.213.113-.814.65 3.224 4.344 7.589 7.655 12.293 10.269.581.322 1.2-.517.612-.843z" fill="#DFE5D2" data-color="2"></path>
        <path d="M32.073 77.137c-2.043-1.606-4.587-1.879-7.068-2.357-3.644-.701-6.911-3.323-9.721-5.621-.522-.427-1.157.399-.638.823 2.521 2.06 5.182 3.837 8.116 5.255 2.8 1.354 6.087.689 8.673 2.723.529.416 1.165-.408.638-.823z" fill="#DFE5D2" data-color="2"></path>
        <path d="M34.275 82.923c-1.319-1.211-3.183-1.296-4.875-1.58-3.38-.569-6.645-2.043-9.961-2.913-.65-.17-.798.86-.155 1.029 2.801.737 5.528 1.711 8.312 2.505 1.895.541 4.53.397 6.035 1.778.495.454 1.137-.367.644-.819z" fill="#DFE5D2" data-color="2"></path>
        <path d="M35.489 88.919c-1.365-1.261-3.219-1.524-4.999-1.771-2.905-.402-6.317-.749-8.792-2.418-.552-.373-1.231.419-.674.794 1.86 1.255 3.932 1.641 6.096 2.122 2.449.545 5.758.278 7.695 2.066.495.458 1.166-.339.674-.793z" fill="#DFE5D2" data-color="2"></path>
        <path d="M35.756 96.615c-2.59-1.289-5.184-2.547-7.972-3.358-2.375-.692-5.239-.434-7.005-2.456-.439-.503-1.279.114-.837.62 1.47 1.683 3.519 2.073 5.638 2.445 3.489.614 6.62 2.139 9.767 3.706.602.301 1.008-.658.409-.957z" fill="#DFE5D2" data-color="2"></path>
        <path d="M36.976 104.004c-2.378-.855-4.88-1.216-7.322-1.836-2.89-.734-5.578-2.369-8.068-3.947-.568-.36-1.011.583-.45.939 2.348 1.487 4.725 2.772 7.347 3.712 2.614.937 5.426 1.131 8.044 2.072.626.225 1.082-.712.449-.94z" fill="#DFE5D2" data-color="2"></path>
        <path d="M40.606 110.803c-4.404-2.137-9.455-2.292-13.792-4.588-.593-.314-1.11.59-.515.905 4.344 2.3 9.39 2.451 13.791 4.587.603.292 1.122-.611.516-.904z" fill="#DFE5D2" data-color="2"></path>
        <path d="M48.386 118.173c-4.323-2.635-9.73-2.422-14.516-3.636-.653-.166-.883.849-.233 1.014 4.688 1.19 10.037.965 14.266 3.545.574.349 1.054-.575.483-.923z" fill="#DFE5D2" data-color="2"></path>
        <path d="M53.044 123.309c-5.693-1.642-11.766-1.369-17.262-3.746-.616-.267-1.078.666-.461.933 5.584 2.415 11.734 2.165 17.517 3.832.648.189.847-.834.206-1.019z" fill="#DFE5D2" data-color="2"></path>
        <path d="M58.442 131.973c-2.569-1.537-5.323-1.421-8.228-1.605-3.866-.245-8.026-1.87-11.36-3.78-.579-.331-1.192.511-.609.845 2.682 1.537 5.544 2.594 8.535 3.362 3.603.926 7.789.069 11.053 2.023.574.344 1.186-.5.609-.845z" fill="#DFE5D2" data-color="2"></path>
        <path d="M57.451 137.166c-2.056-1.438-4.07-.823-6.443-.899-2.723-.086-6.143-1.114-8.348-2.692-.546-.39-1.174.441-.626.832 1.627 1.164 3.494 1.743 5.416 2.232 1.127.287 2.279.477 3.426.661 2.118.337 3.932-.714 5.949.698.551.384 1.178-.447.626-.832z" fill="#DFE5D2" data-color="2"></path>
        <path d="M68.253 114.843c-.061-.661-1.105-.668-1.042.003.498 5.389-1.323 10.637-3.18 15.617-.234.629.773.898 1.006.275 1.887-5.065 3.722-10.415 3.216-15.895z" fill="#DFE5D2" data-color="2"></path>
    </g>
</svg>